<?xml version="1.0" standalone="no"?>
<!DOCTYPE svg PUBLIC "-//W3C//DTD SVG 20010904//EN"
 "http://www.w3.org/TR/2001/REC-SVG-20010904/DTD/svg10.dtd">
<svg version="1.0" xmlns="http://www.w3.org/2000/svg"
 width="300.000000pt" height="300.000000pt" viewBox="0 0 300.000000 300.000000"
 preserveAspectRatio="xMidYMid meet">
<metadata>
Created by potrace 1.10, written by Peter Selinger 2001-2011
</metadata>
<g transform="translate(0.000000,300.000000) scale(0.100000,-0.100000)"
fill="#000000" stroke="none">
<path d="M1354 2555 c-160 -35 -310 -155 -387 -310 -28 -56 -57 -182 -57 -247
0 -68 26 -172 61 -245 42 -88 158 -207 246 -252 l63 -31 -21 -40 -21 -40 -31
24 c-57 42 -94 56 -152 56 -61 0 -104 -17 -148 -58 l-27 -26 -33 31 c-43 43
-75 53 -163 53 -103 0 -120 -18 -126 -135 l-3 -50 -29 73 c-35 87 -62 112
-121 112 -53 0 -87 -31 -110 -101 -9 -27 -20 -51 -25 -54 -14 -9 -23 16 -11
28 20 20 13 82 -12 105 -20 19 -35 22 -106 22 -74 0 -84 -2 -106 -25 -24 -23
-25 -28 -25 -172 0 -120 3 -153 16 -171 18 -26 12 -52 -11 -52 -9 0 -15 -9
-15 -21 0 -16 4 -19 17 -14 71 29 147 6 177 -53 20 -39 34 -130 29 -192 -2
-28 -2 -50 0 -50 5 0 112 189 146 257 12 24 26 43 31 43 12 0 12 3 -1 -100
-20 -157 11 -252 77 -236 42 11 99 76 120 138 25 72 25 184 1 222 -19 29 -17
44 3 31 21 -13 40 -73 40 -129 0 -132 -79 -269 -162 -283 -81 -13 -115 54
-105 205 l6 86 -82 -152 c-45 -83 -85 -152 -89 -152 -5 0 -8 48 -8 106 0 182
-29 244 -115 244 -51 0 -85 -14 -85 -34 0 -11 13 -13 59 -9 55 5 60 4 75 -20
9 -14 20 -42 23 -63 6 -37 5 -38 -12 -24 -22 18 -145 21 -145 4 0 -33 41 -40
108 -19 37 12 26 -14 -14 -31 -27 -11 -43 -13 -65 -5 -27 9 -29 8 -29 -15 0
-22 4 -24 44 -24 29 0 55 8 80 25 l36 24 0 -48 c0 -77 10 -112 36 -123 30 -14
53 5 95 79 17 30 34 52 37 49 3 -3 15 -29 26 -58 16 -40 30 -56 59 -71 34 -17
43 -18 79 -8 22 7 59 30 83 52 l44 40 15 -30 c19 -36 53 -61 84 -61 12 0 45
11 72 25 61 31 65 31 102 0 34 -29 48 -31 88 -10 27 14 33 14 58 1 23 -12 46
-13 112 -7 46 5 93 6 104 2 33 -13 65 0 96 37 34 41 38 67 14 93 -13 14 -21
16 -36 8 -11 -6 -22 -8 -25 -6 -2 3 3 40 12 82 20 88 15 138 -16 171 -25 26
-46 30 -69 11 -33 -27 -43 -51 -50 -123 -7 -70 -10 -79 -46 -115 -21 -21 -39
-37 -41 -36 -1 2 7 30 19 63 22 61 30 178 14 220 -6 16 -2 23 18 32 14 6 43
27 65 47 l40 37 33 -38 c18 -20 47 -43 65 -50 68 -29 167 -11 222 39 20 18 25
19 29 7 3 -8 18 -27 34 -42 l29 -27 -20 -28 c-23 -32 -40 -99 -41 -161 l0 -43
-43 6 c-118 18 -191 -96 -110 -171 34 -32 108 -33 168 -3 l43 21 56 -21 c68
-25 126 -27 168 -5 29 15 34 15 59 0 34 -20 62 -20 99 -1 23 12 34 13 55 3 20
-9 31 -8 50 2 21 11 27 11 43 -3 24 -22 34 -21 66 4 26 20 26 20 51 1 17 -13
35 -19 53 -16 34 6 48 6 93 -2 24 -4 46 -1 64 9 24 12 32 12 55 1 19 -10 35
-11 61 -4 23 7 42 7 59 0 16 -7 58 -7 120 -2 52 5 104 6 116 1 11 -4 32 -5 47
-2 21 4 27 11 27 31 0 20 -3 23 -12 14 -18 -18 -55 -14 -71 8 l-14 20 -18 -20
c-22 -24 -48 -26 -65 -5 -11 14 -15 14 -29 1 -33 -29 -68 -30 -97 -1 l-26 26
-22 -20 c-30 -28 -60 -26 -84 4 l-19 24 -23 -24 c-13 -14 -31 -27 -41 -30 -24
-8 -59 11 -59 32 0 14 -4 13 -23 -5 -45 -42 -87 -23 -87 40 0 21 -4 38 -10 38
-5 0 -25 -25 -45 -55 -19 -31 -40 -53 -45 -50 -6 3 -10 28 -10 56 0 27 -4 49
-8 49 -4 0 -21 -22 -37 -50 -38 -65 -53 -64 -57 3 l-3 52 -24 -38 c-30 -49
-60 -77 -82 -77 -43 0 -66 95 -33 136 14 18 15 16 10 -32 -3 -36 0 -57 10 -70
13 -18 15 -17 46 18 18 20 43 51 56 67 30 40 42 32 42 -27 l0 -46 17 24 c52
79 83 85 84 16 0 -36 2 -39 12 -22 54 87 97 96 97 20 0 -78 55 -65 84 20 18
51 32 41 28 -20 -5 -65 14 -76 59 -36 30 27 31 30 33 120 l1 92 -42 0 c-24 0
-43 5 -43 10 0 6 22 10 49 10 41 0 51 4 56 20 8 26 45 26 52 0 5 -18 14 -20
79 -20 43 0 74 -4 74 -10 0 -6 -31 -10 -74 -10 l-74 0 -7 -42 c-4 -24 -16 -65
-26 -93 -17 -44 -17 -51 -4 -72 9 -13 21 -23 28 -23 17 0 50 36 71 78 19 37
50 41 70 10 8 -13 5 -24 -12 -47 -29 -39 -28 -43 10 -39 25 2 39 12 62 47 16
24 41 48 55 54 24 9 26 13 23 64 -7 110 38 193 74 138 19 -29 14 -80 -17 -182
-23 -73 -22 -101 4 -117 15 -9 22 -7 38 13 25 31 25 51 -2 44 -18 -5 -19 -2
-13 23 4 16 13 46 21 68 16 48 17 149 1 177 -10 17 -10 23 0 26 9 3 12 36 11
121 l-2 117 -12 -100 c-7 -55 -14 -103 -14 -107 -1 -5 -237 -8 -526 -8 l-525
0 0 21 c0 19 -4 21 -43 15 l-43 -7 -54 76 c-29 41 -54 75 -55 75 -1 0 0 -34 3
-75 l5 -75 -47 0 -46 0 0 165 0 165 46 0 47 0 -5 -70 c-3 -38 -3 -70 1 -70 3
1 25 32 49 70 l44 70 54 0 c30 0 54 -2 54 -5 0 -3 -27 -39 -61 -79 l-60 -74
58 -73 58 -72 12 114 c6 63 14 133 18 157 l6 42 520 0 c514 0 519 0 519 20 0
20 -3 20 -522 16 -288 -2 -551 -5 -586 -5 -47 0 -69 -5 -92 -21 l-29 -21 -31
22 c-16 13 -30 25 -30 28 0 3 24 20 53 38 79 47 139 105 186 176 62 95 84 165
89 282 7 174 -40 297 -163 421 -141 143 -330 201 -521 159z m252 -45 c43 -11
103 -35 133 -53 116 -68 214 -196 247 -321 19 -70 18 -210 -2 -277 -47 -162
-172 -294 -329 -350 -82 -30 -220 -36 -302 -15 -153 39 -282 143 -346 277 -58
123 -69 214 -42 344 22 104 59 171 139 251 142 143 314 192 502 144z m-161
-1172 c0 -53 -3 -99 -7 -103 -19 -20 -28 14 -28 106 0 90 2 100 18 97 15 -3
17 -16 17 -100z m-1210 55 l-1 -37 -52 3 -52 2 0 -32 0 -32 50 6 50 6 0 -39 0
-40 -51 0 -50 0 2 -62 3 -63 -42 -3 -42 -3 0 165 0 166 93 0 94 0 -2 -37z
m275 -115 c29 -84 55 -159 58 -166 3 -10 -7 -12 -44 -10 -42 3 -49 6 -54 28
-5 23 -11 25 -62 28 -54 3 -56 2 -66 -28 -10 -28 -15 -30 -58 -30 -40 0 -45 2
-39 18 6 15 98 266 110 300 3 7 23 12 53 12 l49 0 53 -152z m312 113 c25 -28
29 -39 24 -70 -3 -24 -16 -45 -37 -63 l-31 -26 41 -61 c23 -33 41 -62 41 -65
0 -4 -22 -6 -49 -6 l-49 0 -37 65 c-20 36 -37 65 -39 65 -2 0 -1 -29 2 -65 l5
-65 -47 0 -46 0 0 166 0 166 96 -4 c94 -3 96 -3 126 -37z m335 13 c49 -37 73
-82 73 -139 0 -66 -29 -112 -90 -142 -79 -41 -159 -26 -217 40 -70 80 -43 210
52 254 44 20 148 12 182 -13z m213 -80 c0 -125 7 -144 55 -144 55 0 68 29 63
150 l-3 100 43 0 42 0 0 -120 c0 -86 -4 -129 -15 -149 -28 -54 -126 -78 -198
-47 -60 25 -65 38 -69 184 l-3 132 43 0 42 0 0 -106z m530 -49 c0 -26 -14 -33
-25 -15 -9 14 1 40 15 40 5 0 10 -11 10 -25z m-1684 -125 c-5 -35 -3 -44 18
-65 34 -34 74 -32 121 5 21 17 43 30 50 30 7 0 29 -13 50 -30 22 -18 50 -30
67 -30 24 0 32 -6 45 -37 40 -96 -23 -293 -93 -293 -40 0 -47 31 -40 166 l7
123 -26 17 c-26 17 -27 16 -51 -7 -13 -13 -39 -53 -56 -88 -18 -35 -37 -64
-43 -63 -5 0 -15 21 -21 46 -14 55 -47 102 -85 122 l-30 15 21 26 c11 14 20
36 20 49 0 36 11 54 32 54 18 0 20 -4 14 -40z m746 -63 l56 -28 -19 -44 c-12
-28 -22 -79 -26 -138 l-6 -94 -38 38 c-49 49 -83 58 -112 31 -14 -13 -40 -22
-72 -24 -27 -3 -59 -8 -69 -13 -18 -8 -19 -5 -10 36 10 55 11 134 2 176 -6 27
-3 34 19 48 24 16 28 16 60 1 52 -25 90 -21 121 13 15 16 29 28 32 27 3 0 31
-14 62 -29z m952 -42 c17 -13 92 -15 489 -15 258 0 472 -1 474 -4 3 -2 -1 -15
-8 -27 -6 -13 -15 -54 -19 -92 -6 -51 -14 -75 -31 -93 -27 -29 -39 -30 -62 -4
-25 30 -66 25 -105 -12 l-34 -33 8 40 c11 65 20 75 67 75 44 0 87 22 87 44 0
24 -35 44 -88 48 -37 4 -60 12 -77 28 -26 25 -26 25 -95 -15 -14 -8 -35 -15
-47 -15 -25 0 -83 -65 -83 -93 0 -10 4 -26 9 -35 7 -13 4 -25 -8 -41 l-18 -23
-27 27 c-22 21 -33 26 -54 20 -30 -7 -53 -8 -127 -1 -27 3 -59 5 -70 6 -11 1
-34 -14 -52 -35 l-31 -36 -12 35 c-9 29 -9 39 4 57 32 47 -32 102 -74 64 -23
-20 -25 -47 -8 -74 28 -45 -67 -130 -130 -116 -15 3 -42 14 -60 25 -32 20 -32
20 -32 103 0 90 15 127 51 127 17 0 20 -6 17 -29 -6 -59 45 -81 81 -35 26 33
27 70 1 112 l-20 32 33 0 c17 0 41 -7 51 -15z m-107 -21 c28 -18 38 -55 23
-83 -11 -21 -40 -29 -40 -11 0 6 5 10 10 10 15 0 12 56 -4 69 -26 22 -87 9
-110 -22 -18 -24 -22 -46 -24 -135 l-4 -107 57 -29 c71 -36 123 -38 164 -8 35
26 41 27 41 9 0 -8 -21 -24 -46 -36 -56 -28 -92 -24 -173 18 -56 29 -57 29
-70 9 -6 -10 -27 -26 -46 -34 -99 -41 -179 27 -117 99 19 21 96 23 132 2 14
-8 28 -14 33 -15 4 0 7 41 7 90 0 95 13 142 46 171 35 31 76 31 121 3z m-706
-11 c15 -38 -4 -138 -38 -208 -22 -44 -25 -60 -17 -82 13 -38 47 -42 71 -8 42
60 66 85 81 85 14 0 16 9 14 62 -6 100 27 178 63 148 22 -18 19 -122 -5 -190
-23 -65 -25 -103 -6 -119 19 -16 43 -4 58 30 13 29 28 39 28 19 0 -27 -33 -70
-57 -76 -20 -5 -31 -2 -44 15 l-18 22 -21 -21 c-24 -24 -43 -26 -60 -5 -10 12
-15 12 -35 -1 -33 -22 -67 -14 -83 19 l-13 27 -25 -30 c-18 -20 -35 -30 -54
-30 -36 0 -49 22 -43 72 7 48 -13 51 -42 5 -11 -17 -34 -36 -50 -42 -17 -5
-36 -15 -43 -22 -35 -33 -87 -22 -98 22 -8 32 3 63 28 76 28 15 33 4 9 -20
-12 -12 -21 -27 -21 -35 0 -23 28 -39 55 -32 l25 6 -21 29 c-17 23 -19 32 -10
50 7 11 18 21 27 21 16 0 37 -47 30 -67 -9 -22 19 -15 44 12 23 25 23 25 4 39
-15 12 -17 19 -8 32 16 27 35 29 41 5 3 -14 13 -21 29 -21 22 0 24 -4 24 -55
0 -48 3 -55 20 -55 10 0 31 15 45 33 24 30 26 40 28 147 2 91 6 122 20 143 23
35 54 35 68 0z m885 -124 c10 -17 -23 -46 -37 -32 -7 7 -9 19 -6 27 7 18 33
21 43 5z m472 -12 c4 -21 -25 -34 -40 -19 -8 8 -8 16 2 27 16 19 34 15 38 -8z
m32 -74 l-1 -38 -13 30 c-14 31 -12 45 5 45 5 0 9 -17 9 -37z"/>
<path d="M1384 2416 c-78 -18 -135 -47 -189 -97 -37 -34 -105 -125 -105 -140
0 -2 117 -3 260 -1 l260 3 0 -66 c0 -63 -1 -66 -22 -63 l-23 3 -3 -237 c-1
-131 0 -238 3 -238 4 0 40 15 81 34 96 45 173 121 217 213 41 87 50 209 21
300 -65 208 -289 336 -500 289z m222 -56 c255 -87 339 -409 158 -610 -40 -45
-118 -100 -141 -100 -20 0 -19 359 2 386 9 11 14 42 15 78 0 48 -4 64 -22 83
-21 23 -25 23 -235 23 -117 0 -213 3 -213 8 0 11 44 56 84 87 85 65 236 84
352 45z"/>
<path d="M1050 2008 l0 -48 118 0 118 0 -1 -60 0 -60 -103 0 -103 0 23 -42
c55 -102 187 -197 296 -214 l42 -7 -2 237 -3 237 -193 2 -192 2 0 -47z m338
-182 c1 -108 -1 -183 -7 -189 -27 -27 -235 122 -216 153 3 6 31 10 61 10 74 0
94 20 94 97 0 48 -4 61 -27 86 l-28 28 60 -3 60 -3 3 -179z"/>
<path d="M391 1303 c-7 -31 -15 -62 -18 -69 -4 -11 5 -14 37 -14 38 0 41 2 34
23 -4 12 -13 41 -19 64 -6 23 -13 44 -16 47 -2 3 -11 -20 -18 -51z"/>
<path d="M690 1320 c0 -36 3 -40 25 -40 14 0 29 8 35 20 15 28 -4 60 -35 60
-22 0 -25 -4 -25 -40z"/>
<path d="M1003 1336 c-59 -51 -20 -159 58 -159 44 0 79 41 79 91 -1 41 -13 63
-47 80 -33 18 -59 14 -90 -12z m87 -46 c22 -42 -21 -88 -55 -60 -15 13 -20 61
-8 73 14 15 53 6 63 -13z"/>
<path d="M1488 759 c-28 -16 -23 -58 8 -69 33 -13 94 3 118 29 18 19 17 20
-19 35 -43 18 -82 20 -107 5z"/>
<path d="M1049 998 c-7 -12 -14 -65 -16 -118 l-3 -95 21 45 c24 51 39 190 21
190 -6 0 -17 -10 -23 -22z"/>
<path d="M1245 980 c-4 -6 -8 -52 -11 -103 -4 -91 -4 -92 12 -57 20 42 32 170
16 170 -6 0 -14 -5 -17 -10z"/>
<path d="M1177 762 c-21 -23 -23 -72 -3 -72 20 0 46 39 46 67 0 28 -21 30 -43
5z"/>
<path d="M2505 1384 c-45 -23 -66 -45 -86 -89 -23 -50 -23 -79 0 -131 12 -27
30 -46 54 -57 67 -32 159 -15 165 31 4 26 4 26 -43 6 -118 -49 -194 96 -94
181 35 29 85 33 128 10 28 -14 29 -13 34 11 4 22 -1 28 -29 40 -44 18 -92 18
-129 -2z"/>
<path d="M1960 1370 c0 -16 7 -20 38 -20 l38 0 -12 -87 c-7 -49 -15 -105 -19
-125 -5 -37 -4 -38 25 -38 26 0 30 4 30 28 0 15 5 71 12 125 l12 97 43 0 c36
0 43 3 43 20 0 19 -7 20 -105 20 -98 0 -105 -1 -105 -20z"/>
<path d="M2205 1378 c-2 -7 -12 -73 -23 -146 l-18 -133 85 3 c72 3 86 6 89 21
3 15 -5 17 -58 17 -53 0 -61 2 -56 16 3 9 6 29 6 45 0 29 0 29 60 29 33 0 60
4 60 9 0 5 3 16 6 25 5 14 -3 16 -56 16 -60 0 -62 1 -56 23 3 12 6 27 6 34 0
8 22 13 62 15 50 2 63 6 66 21 3 15 -6 17 -83 17 -59 0 -87 -4 -90 -12z"/>
<path d="M2706 1258 c-9 -73 -19 -139 -21 -145 -3 -9 6 -13 25 -13 28 0 29 2
35 65 l7 65 74 0 c83 0 79 4 65 -82 -7 -46 -7 -48 15 -48 18 0 24 7 29 33 5
30 35 246 35 254 0 2 -11 3 -23 3 -21 0 -25 -7 -33 -56 l-9 -56 -73 -1 -73 -2
6 40 c4 22 9 48 11 58 4 13 -1 17 -24 17 l-28 0 -18 -132z"/>
<path d="M2916 973 c-13 -32 -20 -173 -9 -173 13 0 46 151 37 173 -8 22 -20
22 -28 0z"/>
<path d="M2555 897 c-4 -13 -5 -46 -3 -73 l3 -49 12 40 c24 83 26 105 9 105
-9 0 -18 -10 -21 -23z"/>
<path d="M2695 759 c-4 -11 -4 -24 0 -27 9 -9 36 28 29 39 -9 15 -22 10 -29
-12z"/>
<path d="M2847 762 c-20 -21 -22 -58 -5 -68 15 -10 48 32 48 62 0 29 -20 31
-43 6z"/>
</g>
</svg>
