<?xml version="1.0" standalone="no"?>
<!DOCTYPE svg PUBLIC "-//W3C//DTD SVG 20010904//EN"
 "http://www.w3.org/TR/2001/REC-SVG-20010904/DTD/svg10.dtd">
<svg version="1.0" xmlns="http://www.w3.org/2000/svg"
 width="300.000000pt" height="300.000000pt" viewBox="0 0 300.000000 300.000000"
 preserveAspectRatio="xMidYMid meet">
<metadata>
Created by potrace 1.10, written by Peter Selinger 2001-2011
</metadata>
<g transform="translate(0.000000,300.000000) scale(0.100000,-0.100000)"
fill="#000000" stroke="none">
<path d="M1383 2789 c-176 -29 -359 -169 -438 -333 -135 -280 -42 -602 223
-776 96 -63 180 -90 302 -97 182 -11 334 49 471 186 90 91 142 185 164 304 19
99 19 145 0 242 -53 281 -310 488 -600 484 -38 -1 -94 -5 -122 -10z m252 -14
c215 -45 404 -225 456 -435 34 -137 8 -324 -64 -450 -93 -163 -291 -284 -487
-297 -311 -19 -577 191 -635 501 -53 281 114 559 397 662 93 34 225 42 333 19z"/>
<path d="M1375 2686 c-115 -28 -238 -114 -306 -212 -16 -23 -29 -45 -29 -48 0
-3 140 -6 310 -6 l310 0 0 -49 0 -50 -47 -3 -48 -3 -2 -314 -2 -314 47 7 c113
15 272 127 339 238 48 79 77 203 70 298 -7 96 -29 158 -84 242 -95 145 -257
229 -434 227 -41 0 -96 -6 -124 -13z m254 -11 c90 -24 161 -65 232 -135 261
-256 161 -690 -189 -817 -35 -13 -69 -23 -77 -23 -13 0 -15 45 -15 305 l0 305
45 0 45 0 0 60 0 60 -305 0 c-168 0 -305 3 -305 7 0 17 84 114 127 145 134 98
296 132 442 93z"/>
<path d="M995 2286 c-14 -71 -14 -71 128 -71 l127 0 0 -52 0 -53 -129 0 -129
0 10 -42 c28 -124 128 -254 250 -322 66 -37 196 -72 211 -57 4 4 6 147 5 317
l-3 309 -232 3 -232 2 -6 -34z m465 -286 l0 -310 -27 6 c-138 30 -222 74 -301
158 -53 56 -106 151 -118 214 l-6 32 126 0 126 0 0 65 0 65 -130 0 c-141 0
-139 -1 -124 58 6 22 6 22 230 22 l224 0 0 -310z"/>
<path d="M974 1521 c-154 -39 -187 -279 -52 -369 32 -21 51 -26 101 -26 71 1
112 18 151 64 50 60 60 182 19 250 -38 65 -137 102 -219 81z m146 -26 c120
-62 119 -268 -2 -340 -40 -23 -131 -24 -173 -3 -80 42 -115 140 -86 243 27
101 160 152 261 100z"/>
<path d="M965 1404 c-31 -33 -38 -57 -31 -98 11 -59 71 -94 127 -74 61 21 80
124 33 172 -37 36 -95 36 -129 0z m120 -9 c45 -44 27 -133 -31 -155 -34 -13
-82 7 -99 41 -23 43 -18 77 14 110 38 37 82 39 116 4z"/>
<path d="M1916 1503 c-3 -16 -10 -71 -16 -123 -6 -52 -13 -114 -16 -138 l-5
-42 -42 51 c-76 94 -74 86 -40 122 39 42 103 128 103 138 0 5 -25 9 -55 9
l-55 0 -48 -65 -47 -66 -3 66 -3 65 -49 0 -50 0 0 -195 0 -195 50 0 49 0 3 70
3 71 55 -71 c30 -38 60 -70 67 -70 7 0 13 -9 13 -20 0 -20 6 -20 588 -18 l587
3 -582 2 c-497 3 -583 5 -583 17 0 9 13 16 33 19 25 3 21 4 -15 5 -47 2 -49 3
-105 77 -32 41 -61 74 -65 75 -5 0 -8 -34 -8 -75 l0 -75 -40 0 -40 0 0 185 0
185 40 0 40 0 0 -71 c0 -84 5 -83 72 13 40 57 41 58 90 58 l49 0 -21 -30 c-12
-17 -43 -56 -69 -87 l-48 -57 65 -78 c36 -43 67 -77 68 -75 1 1 10 65 19 142
9 77 18 152 21 167 l6 28 536 3 537 2 -542 3 -541 2 -6 -27z"/>
<path d="M83 1513 l87 -4 0 -39 0 -40 -50 0 -50 0 0 -35 0 -35 50 0 50 0 0
-35 0 -35 -50 0 -50 0 0 -74 0 -75 -35 -4 -35 -4 37 1 38 1 3 73 3 72 50 0 50
0 -3 48 -3 47 -47 -2 c-45 -3 -48 -1 -48 22 0 22 5 24 48 27 l47 3 3 48 3 47
-93 -2 -93 -2 88 -3z"/>
<path d="M298 1473 c-9 -27 -39 -111 -67 -188 -28 -77 -51 -143 -51 -147 0 -5
24 -8 54 -8 51 0 55 2 65 30 9 28 13 30 64 30 51 0 55 -2 67 -30 11 -27 17
-30 60 -30 25 0 49 3 53 6 3 3 -23 89 -59 191 -35 102 -64 187 -64 189 0 2
-24 4 -53 4 l-53 0 -16 -47z m126 -5 c9 -24 38 -107 65 -185 l48 -143 -43 0
c-41 0 -45 3 -58 35 -15 34 -16 35 -71 35 -55 0 -56 -1 -71 -35 -13 -33 -17
-35 -59 -35 l-44 0 40 113 c23 61 52 145 66 185 l25 72 43 0 c42 0 44 -1 59
-42z"/>
<path d="M356 1380 c-21 -52 -34 -99 -29 -104 4 -3 22 -6 41 -6 33 0 34 1 29
29 -10 51 -34 98 -41 81z m33 -87 c1 -7 -10 -13 -24 -13 -29 0 -29 1 -14 55
l12 40 13 -35 c7 -19 13 -41 13 -47z"/>
<path d="M560 1325 l0 -195 49 0 49 0 4 68 c2 37 0 71 -4 77 -4 5 -8 -23 -8
-63 l0 -72 -40 0 -40 0 0 185 0 185 73 0 c121 0 172 -41 163 -129 -3 -35 -11
-51 -35 -70 l-30 -26 44 -65 c24 -36 45 -68 45 -72 0 -5 -20 -8 -45 -8 -44 0
-45 1 -76 55 -17 31 -33 54 -35 52 -3 -2 10 -30 28 -61 l32 -56 53 0 c66 0 67
8 10 91 l-42 62 32 32 c26 26 33 41 33 74 0 94 -51 131 -180 131 l-80 0 0
-195z"/>
<path d="M1240 1378 c1 -163 12 -198 70 -232 48 -28 139 -28 177 0 53 39 63
74 63 232 l0 142 -49 0 -49 0 -4 -136 c-3 -120 -5 -137 -22 -150 -25 -18 -41
-18 -60 2 -13 12 -16 41 -16 150 l0 134 -55 0 -55 0 0 -142z m95 9 c0 -133 9
-163 51 -173 19 -5 32 -1 47 15 20 19 22 34 25 151 l4 130 39 0 39 0 0 -135
c0 -115 -3 -142 -20 -174 -36 -71 -149 -91 -216 -39 -44 35 -54 74 -54 218 l0
130 43 0 42 0 0 -123z"/>
<path d="M2495 1461 c-71 -43 -111 -120 -102 -198 9 -84 74 -135 169 -135 58
1 73 12 82 61 6 31 4 33 -17 26 -81 -25 -121 -17 -144 29 -34 73 18 166 94
166 22 0 48 -7 59 -15 29 -22 34 -18 34 29 0 37 -4 45 -22 50 -47 12 -123 6
-153 -13z m149 3 c10 -4 16 -18 16 -42 0 -33 -1 -34 -18 -19 -23 21 -83 22
-121 2 -65 -33 -80 -146 -25 -194 24 -20 36 -23 81 -19 44 4 53 2 53 -12 0 -9
-5 -21 -12 -28 -18 -18 -108 -15 -147 6 -106 54 -87 237 31 295 33 17 112 22
142 11z"/>
<path d="M1950 1450 c0 -11 0 -23 0 -27 -1 -5 14 -10 33 -13 l34 -5 -13 -72
c-6 -40 -15 -99 -19 -132 l-7 -61 36 0 c29 0 37 4 41 23 7 27 35 217 35 235 0
7 15 12 40 12 38 0 40 2 40 30 l0 30 -110 0 c-103 0 -110 -1 -110 -20z m210
-10 c0 -17 -7 -20 -39 -20 l-38 0 -19 -132 c-19 -132 -20 -133 -47 -136 -15
-2 -27 -1 -27 2 0 11 30 211 36 239 5 26 4 27 -34 27 -35 0 -39 2 -35 20 5 18
14 20 104 20 92 0 99 -1 99 -20z"/>
<path d="M2195 1448 c-2 -13 -9 -63 -14 -113 -6 -49 -13 -114 -17 -142 l-7
-53 95 0 c91 0 96 1 102 23 10 36 8 37 -49 37 l-55 0 0 35 0 35 54 0 54 0 4
35 c2 20 2 38 -1 40 -2 3 -24 5 -48 5 -41 0 -43 1 -43 29 0 29 2 30 53 33 48
3 52 5 55 31 l3 27 -90 0 c-86 0 -91 -1 -96 -22z m175 -8 c0 -18 -7 -20 -55
-20 -30 0 -55 -4 -55 -9 0 -5 -3 -23 -6 -40 l-6 -31 51 0 c50 0 51 -1 51 -29
0 -29 -2 -30 -52 -33 l-53 -3 -3 -42 -3 -43 50 0 c44 0 51 -3 51 -20 0 -18 -7
-20 -86 -20 l-87 0 7 38 c3 20 11 80 16 132 17 153 8 140 100 140 73 0 80 -2
80 -20z"/>
<path d="M2716 1418 c-4 -29 -11 -91 -17 -138 -5 -47 -12 -97 -14 -112 -4 -27
-2 -28 34 -28 l39 0 7 65 7 65 65 0 65 0 -6 -27 c-3 -16 -8 -45 -12 -65 l-6
-38 41 0 c22 0 41 3 41 8 0 4 9 63 20 132 11 69 19 136 19 150 -1 19 -47 -240
-49 -272 0 -5 -14 -8 -31 -8 -24 0 -29 4 -25 18 3 9 8 38 12 65 l6 47 -76 0
-76 0 0 -27 c0 -16 -3 -45 -6 -65 -6 -33 -10 -38 -34 -38 l-26 0 12 98 c6 53
15 123 19 155 6 54 8 57 34 57 27 0 27 0 23 -60 l-4 -60 71 0 c78 0 72 -6 86
82 5 32 10 37 38 41 32 4 32 4 -5 5 -35 2 -36 1 -43 -40 -12 -80 -10 -78 -77
-78 l-61 0 6 60 7 60 -39 0 -39 0 -6 -52z"/>
<path d="M652 1393 c3 -45 5 -48 28 -45 23 2 50 26 50 44 0 16 -40 48 -61 48
-18 0 -20 -5 -17 -47z m52 21 c25 -24 17 -46 -21 -58 -21 -7 -23 -4 -23 33 0
45 16 54 44 25z"/>
<path d="M625 1110 c-4 -6 1 -20 11 -31 26 -29 31 -126 9 -204 -43 -161 -159
-239 -202 -137 -13 30 -14 61 -9 170 5 107 4 133 -6 130 -7 -2 -49 -73 -93
-157 l-80 -152 -12 106 c-13 118 -30 157 -83 192 -40 28 -116 31 -146 7 -18
-15 -18 -15 3 -5 25 12 102 14 120 3 6 -4 -15 -7 -48 -7 -44 0 -63 -5 -76 -19
-18 -18 -17 -18 14 -2 38 19 72 20 107 4 52 -23 74 -88 83 -253 3 -55 8 -102
10 -105 16 -18 167 267 157 297 -5 15 -4 16 5 3 7 -9 9 -36 5 -72 -9 -83 10
-162 47 -193 106 -88 249 74 249 282 0 74 -13 117 -43 142 -11 9 -17 9 -22 1z
m35 -32 c28 -46 27 -156 -2 -244 -40 -123 -136 -194 -203 -150 -36 24 -59 110
-50 193 4 43 3 68 -5 78 -9 10 -7 21 5 44 8 17 17 31 19 31 2 0 3 -65 2 -144
-1 -132 1 -147 20 -173 82 -111 238 93 222 291 -3 32 -12 63 -21 74 -9 10 -17
22 -17 25 0 15 11 5 30 -25z m-476 -77 c26 -29 45 -103 52 -207 8 -109 4 -112
88 47 31 57 56 101 56 96 0 -11 -105 -217 -129 -252 l-21 -30 0 60 c-2 134
-22 234 -57 276 -27 32 -17 41 11 10z"/>
<path d="M1141 1037 c-25 -40 -45 -164 -37 -221 5 -34 2 -49 -16 -76 -48 -70
-83 -63 -74 16 5 38 3 43 -18 48 -13 3 -26 15 -29 26 -6 24 -29 26 -47 5 -10
-12 -9 -20 4 -40 15 -23 15 -25 -6 -45 -27 -25 -38 -25 -38 -2 0 32 -30 63
-58 60 -14 -2 -27 -10 -30 -18 -4 -12 -2 -13 9 -2 31 29 77 -5 66 -48 -3 -13
2 -20 17 -23 18 -4 18 -4 -4 -6 -14 0 -31 -10 -38 -21 -15 -24 -64 -27 -86 -4
-18 18 -21 52 -6 74 8 11 9 8 4 -12 -6 -28 23 -68 50 -68 18 0 39 27 31 40 -3
5 -1 10 4 10 6 0 11 5 11 11 0 5 -4 8 -9 5 -5 -3 -11 3 -14 14 -6 22 8 28 16
8 4 -10 6 -10 6 -1 2 20 -21 27 -34 10 -7 -9 -16 -13 -20 -9 -5 4 -5 1 -1 -6
4 -7 12 -9 18 -6 8 5 9 1 4 -11 -4 -11 -2 -22 6 -26 20 -12 -6 -32 -30 -24
-26 8 -38 41 -22 60 6 8 9 19 5 25 -12 19 -45 -20 -45 -52 0 -58 76 -91 114
-49 10 10 33 22 51 25 33 7 75 46 75 70 -1 6 -8 -2 -16 -17 -9 -16 -18 -27
-21 -24 -2 3 1 15 7 27 9 17 9 25 -3 38 -8 9 -12 23 -10 30 7 19 33 14 33 -7
0 -11 9 -21 23 -25 20 -5 22 -11 19 -40 -6 -49 13 -79 45 -71 16 4 22 2 18 -5
-8 -14 -48 -13 -63 2 -7 7 -13 32 -14 58 l-1 45 -4 -42 c-2 -23 1 -51 7 -63
16 -30 62 -26 98 9 l29 30 22 -30 c24 -32 46 -36 78 -14 19 13 24 13 51 -2 27
-15 32 -16 53 -1 21 14 27 14 46 1 33 -22 70 -9 96 35 23 39 24 45 9 50 -5 1
-19 -13 -30 -33 -24 -40 -48 -45 -63 -12 -8 18 -5 39 14 97 29 88 40 140 29
140 -4 0 -6 17 -4 38 2 21 -3 45 -10 55 -13 18 -15 18 -35 0 -26 -23 -43 -92
-43 -177 0 -58 -2 -66 -19 -66 -17 0 -37 -19 -93 -89 -24 -29 -46 -26 -59 7
-9 22 -6 41 14 102 19 56 25 91 22 140 -2 56 -2 58 5 20 l7 -45 1 42 c2 51
-12 93 -32 93 -8 0 -24 -15 -35 -33z m44 -62 c0 -46 -3 -77 -6 -67 -4 11 -8 4
-13 -21 -4 -21 -10 -46 -13 -55 -4 -15 -3 -15 6 -2 15 21 14 9 -5 -35 -25 -60
0 -125 43 -111 11 3 36 29 57 56 27 35 45 50 62 50 23 0 24 3 24 73 0 91 24
180 47 175 29 -5 26 -137 -4 -230 -24 -73 -25 -79 -9 -103 9 -14 23 -25 31
-25 13 0 49 39 58 63 2 7 7 9 10 6 11 -9 -53 -79 -72 -79 -23 0 -65 45 -57 62
4 7 -1 3 -10 -9 -19 -26 -54 -31 -54 -7 0 40 41 72 53 42 4 -10 6 -10 6 0 2
24 -31 26 -51 3 -26 -34 -24 -71 5 -71 13 0 28 5 35 12 7 7 12 8 12 2 0 -16
-40 -35 -61 -29 -18 6 -24 17 -20 39 1 5 -12 -4 -30 -18 -39 -33 -69 -30 -89
9 -8 17 -16 32 -17 34 -2 2 -12 -8 -24 -23 -12 -15 -23 -25 -26 -22 -3 2 7 20
21 39 14 19 26 39 26 46 0 7 5 9 10 6 6 -3 10 -2 10 3 0 6 -7 13 -16 16 -14 5
-15 17 -9 82 4 42 11 89 16 106 8 29 36 68 48 68 3 0 6 -38 6 -85z"/>
<path d="M1151 1013 c-16 -34 -27 -198 -15 -206 5 -3 10 37 10 89 1 69 6 100
18 119 9 14 13 25 8 25 -5 0 -14 -12 -21 -27z"/>
<path d="M1370 1000 c-14 -26 -25 -182 -16 -207 6 -14 12 -4 27 42 10 33 18
71 18 85 -1 17 -4 12 -9 -15 -5 -22 -13 -51 -19 -65 -9 -20 -10 -8 -6 57 6 92
12 116 28 106 6 -3 7 -1 3 5 -10 16 -14 15 -26 -8z"/>
<path d="M1790 1058 c-67 -25 -91 -75 -93 -192 -2 -85 -3 -91 -22 -88 -74 11
-114 6 -139 -17 -14 -14 -26 -33 -26 -43 0 -32 36 -58 81 -58 48 0 76 13 105
47 l22 26 29 -21 c83 -59 181 -67 231 -19 l27 26 17 -29 c30 -53 91 -33 128
40 32 62 44 61 36 -3 -11 -85 10 -86 62 -2 l32 50 0 -52 c0 -82 10 -80 74 17
13 19 28 34 34 32 7 -1 12 2 12 8 0 15 -11 12 -32 -7 -10 -9 -18 -12 -18 -7 0
16 23 34 42 34 16 0 18 -8 16 -60 -3 -69 -17 -81 -20 -17 l-1 42 -4 -38 c-7
-64 30 -87 73 -46 l22 21 11 -21 c16 -29 61 -27 91 4 l23 24 19 -24 c24 -30
51 -32 78 -5 20 20 20 20 40 0 11 -11 29 -20 40 -20 29 0 72 30 66 46 -3 8 2
27 12 44 18 32 39 43 22 11 -17 -33 -13 -71 8 -71 50 0 69 78 22 91 l-25 7 26
1 c22 1 26 5 22 25 -7 35 14 182 29 206 7 11 18 20 25 20 7 0 13 5 13 11 0 7
-8 6 -22 -3 -30 -20 -45 -65 -53 -164 -7 -77 -8 -81 -36 -91 -16 -6 -33 -22
-38 -35 -14 -35 -57 -72 -77 -64 -15 6 -14 10 9 34 15 16 27 35 27 44 0 37
-63 51 -81 18 -12 -21 -33 -73 -34 -85 -3 -42 -41 -45 -75 -7 -23 26 -25 35
-24 130 l1 101 -51 4 -51 3 50 2 c41 2 52 6 60 24 14 31 33 33 41 4 6 -24 10
-25 82 -29 l77 -3 -77 -2 -78 -2 0 -31 c0 -17 -7 -62 -17 -100 -15 -63 -15
-70 1 -93 17 -27 40 -34 52 -15 4 8 0 9 -15 4 -36 -11 -46 30 -27 107 9 35 16
76 16 91 0 27 0 27 75 27 60 0 75 3 75 15 0 12 -15 15 -73 15 -69 0 -75 2 -85
25 -6 14 -19 25 -27 25 -8 0 -21 -11 -27 -25 -10 -22 -18 -25 -60 -25 -64 0
-61 -24 3 -28 l45 -3 2 -91 c2 -82 0 -94 -20 -115 -41 -44 -55 -28 -60 72 -3
46 -18 65 -26 33 -2 -9 0 -8 7 2 7 11 11 -4 13 -55 3 -62 6 -71 28 -83 l25
-13 -25 3 c-13 2 -29 13 -36 25 -8 18 -13 20 -24 10 -10 -10 -11 -8 -5 8 4 11
9 36 11 55 l3 35 -8 -35 c-10 -48 -30 -82 -44 -77 -7 2 -12 25 -12 58 0 44 -3
54 -18 57 -10 2 -28 -4 -39 -15 -23 -21 -46 -59 -29 -49 15 10 14 -6 -2 -28
-11 -15 -13 -11 -15 30 -1 26 -6 52 -12 58 -13 13 -38 -1 -58 -35 -12 -20 -10
-19 8 4 33 41 50 35 50 -17 0 -24 3 -51 6 -60 3 -9 1 -16 -4 -16 -6 0 -12 26
-14 58 l-3 57 -38 -57 c-21 -32 -42 -58 -47 -58 -6 0 -8 21 -4 55 7 55 0 67
-24 43 -8 -8 -12 -8 -12 -1 0 11 22 23 41 23 5 0 9 -21 9 -47 1 -33 3 -43 10
-33 4 9 5 31 1 50 -11 56 -42 52 -87 -10 -66 -92 -97 -89 -92 10 2 43 0 55
-12 55 -15 0 -16 -4 -19 -50 0 -14 -6 -25 -12 -25 -6 0 -24 -14 -40 -31 -26
-28 -34 -31 -73 -27 -24 3 -69 18 -101 34 l-57 29 0 80 c0 44 1 92 1 107 1 35
44 84 78 91 60 11 99 -35 75 -88 -13 -29 0 -42 19 -19 19 23 17 90 -2 110 -22
21 -79 33 -109 22z m99 -34 c12 -15 21 -36 20 -48 0 -15 -4 -10 -12 14 -7 19
-23 40 -37 47 -17 9 -20 13 -8 13 9 0 26 -12 37 -26z m-145 -21 c-9 -15 -21
-41 -25 -58 -6 -27 -7 -28 -8 -5 -1 24 32 90 45 90 3 0 -2 -12 -12 -27z m-26
-182 l-4 -71 71 -35 c91 -45 135 -46 176 -6 16 16 29 25 29 20 0 -16 -38 -48
-65 -55 -46 -12 -120 9 -185 52 -25 16 -27 15 -62 -20 -29 -29 -43 -36 -76
-36 -24 0 -49 7 -63 19 -21 16 -22 22 -11 45 17 38 56 50 116 37 62 -14 68 -7
63 76 -2 38 1 59 6 54 5 -5 8 -41 5 -80z m325 -128 c14 -22 29 -15 75 35 41
43 43 44 28 14 -24 -47 -52 -72 -81 -72 -34 0 -56 45 -47 96 l7 39 5 -50 c3
-27 9 -56 13 -62z m753 92 c8 -21 -23 -66 -40 -59 -15 6 -10 40 7 51 6 4 8 -4
5 -20 -3 -15 -1 -24 3 -21 14 8 11 56 -3 52 -20 -7 -38 -50 -28 -64 6 -6 7
-14 4 -17 -4 -3 5 -12 19 -18 22 -10 31 -9 54 6 l28 18 -19 -21 c-24 -28 -57
-28 -81 -2 -10 12 -24 19 -31 16 -7 -3 -4 15 9 45 17 39 26 49 44 49 13 0 26
-7 29 -15z m134 -38 c0 -25 -17 -47 -37 -47 -16 0 -17 42 -1 58 19 19 38 14
38 -11z"/>
<path d="M1556 749 c-32 -25 -33 -44 -5 -60 44 -23 139 9 139 47 0 13 -57 34
-91 34 -9 0 -28 -9 -43 -21z m116 -5 c39 -25 -65 -68 -116 -48 -23 9 -20 30 7
49 21 15 83 15 109 -1z"/>
<path d="M2971 1006 c-7 -8 -14 -47 -16 -88 l-4 -73 9 68 c5 38 12 76 15 85 6
15 8 15 15 -3 8 -19 9 -19 9 3 1 25 -11 29 -28 8z"/>
<path d="M2982 894 c-6 -32 -10 -59 -8 -61 6 -6 28 95 24 108 -2 6 -9 -15 -16
-47z"/>
<path d="M2610 859 c0 -46 4 -68 10 -64 7 4 9 31 6 68 -4 45 -3 53 3 27 l8
-35 2 38 c1 27 -3 37 -14 37 -12 0 -15 -15 -15 -71z"/>
<path d="M2017 903 c-15 -14 -7 -43 12 -43 24 0 33 13 25 34 -6 16 -25 21 -37
9z"/>
<path d="M2483 899 c-16 -16 -5 -39 19 -39 14 0 19 6 16 22 -4 25 -19 33 -35
17z"/>
<path d="M100 844 c-14 -8 -41 -13 -61 -12 -28 3 -36 0 -34 -12 5 -36 135 -12
135 25 0 18 -7 18 -40 -1z m10 -19 c-14 -8 -43 -14 -65 -13 l-40 1 47 6 c26 4
50 10 54 14 4 4 12 7 18 7 6 -1 0 -7 -14 -15z"/>
<path d="M2972 785 c-17 -37 -15 -59 8 -86 l20 -24 -17 32 c-15 27 -16 37 -6
64 15 39 11 49 -5 14z"/>
<path d="M2921 690 c-15 -13 -32 -18 -50 -15 -26 5 -26 5 -3 -6 19 -10 27 -9
51 9 29 21 29 21 46 1 10 -10 22 -19 26 -19 4 0 -3 11 -17 25 -14 14 -26 25
-27 25 -1 -1 -13 -9 -26 -20z"/>
</g>
</svg>
